<?xml version="1.0" standalone="no"?>
<!DOCTYPE svg PUBLIC "-//W3C//DTD SVG 1.1//EN" "http://www.w3.org/Graphics/SVG/1.1/DTD/svg11.dtd">
<svg width="100%" height="100%" viewBox="0 0 128 128" version="1.1" xmlns="http://www.w3.org/2000/svg" xmlns:xlink="http://www.w3.org/1999/xlink" xml:space="preserve" style="fill-rule:evenodd;clip-rule:evenodd;stroke-linejoin:round;stroke-miterlimit:1.41421;">
    <g id="menu_thick">
        <g transform="matrix(2.52632,-7.02838e-17,-2.75546e-17,1.5,10.9474,17.5)">
            <rect x="2" y="3" width="38" height="8" style="fill:black;"/>
        </g>
        <g transform="matrix(2.52632,-7.02838e-17,-2.75546e-17,1.5,10.9474,89.5)">
            <rect x="2" y="3" width="38" height="8" style="fill:black;"/>
        </g>
        <g transform="matrix(2.52632,-7.02838e-17,-2.75546e-17,1.5,10.9474,53.5)">
            <rect x="2" y="3" width="38" height="8" style="fill:black;"/>
        </g>
    </g>
    <g id="menu">
        <g transform="matrix(2.52632,-7.02838e-17,-2.29621e-17,1.25,10.9474,19.25)">
            <rect x="2" y="3" width="38" height="8" style="fill:black;"/>
        </g>
        <g transform="matrix(2.52632,-7.02838e-17,-2.29621e-17,1.25,10.9474,91.25)">
            <rect x="2" y="3" width="38" height="8" style="fill:black;"/>
        </g>
        <g transform="matrix(2.52632,-7.02838e-17,-2.29621e-17,1.25,10.9474,55.25)">
            <rect x="2" y="3" width="38" height="8" style="fill:black;"/>
        </g>
    </g>
    <g id="menu_thin">
        <g transform="matrix(2.52632,-7.02838e-17,-1.83697e-17,1,10.9474,21)">
            <rect x="2" y="3" width="38" height="8" style="fill:black;"/>
        </g>
        <g transform="matrix(2.52632,-7.02838e-17,-1.83697e-17,1,10.9474,93)">
            <rect x="2" y="3" width="38" height="8" style="fill:black;"/>
        </g>
        <g transform="matrix(2.52632,-7.02838e-17,-1.83697e-17,1,10.9474,57)">
            <rect x="2" y="3" width="38" height="8" style="fill:black;"/>
        </g>
    </g>
</svg>
