<svg width="100%" height="100%" viewBox="0 0 64 64" version="1.1" xmlns="http://www.w3.org/2000/svg" xmlns:xlink="http://www.w3.org/1999/xlink" xml:space="preserve" style="fill-rule:evenodd;clip-rule:evenodd;stroke-linecap:round;stroke-linejoin:round;stroke-miterlimit:1.41421;">
  <g class="vg-magnifying-glass">
    <path d="M57.479,49.636c1.943,1.907 1.943,5.003 0,6.909c-1.944,1.907 -5.099,1.907 -7.043,0c-1.943,-1.906 -1.943,-5.002 0,-6.909c1.944,-1.907 5.099,-1.907 7.043,0Z" style="fill:#000;"/>
    <path d="M57.479,49.636l-17.269,-16.943l-7.042,6.91l17.268,16.942l7.043,-6.909Z" style="fill:#000;"/><circle cx="25.5" cy="25.5" r="17.5" style="fill:none;stroke-width:6px;stroke:#000;"/>
    <path d="M27.635,16.527l-3.983,0l-0.144,7.198l-6.971,0l0,3.908l6.971,0l0,6.84l3.984,0l0,-6.84l6.971,0l0,-3.908l-6.971,0l0.143,-7.198Z" style="fill:#000;"/>
</g>
</svg>